0
SECTION
2
HEADER
9
$INSUNITS
70
4
9
$ACADVER
1
AC1014
9
$HANDSEED
5
FFFF
0
ENDSEC
0
SECTION
2
TABLES
0
TABLE
2
VPORT
5
8
100
AcDbSymbolTable
0
ENDTAB
0
TABLE
2
LTYPE
5
5
100
AcDbSymbolTable
0
LTYPE
5
14
100
AcDbSymbolTableRecord
100
AcDbLinetypeTableRecord
2
BYBLOCK
70
0
0
LTYPE
5
15
100
AcDbSymbolTableRecord
100
AcDbLinetypeTableRecord
2
BYLAYER
70
0
0
ENDTAB
0
TABLE
2
LAYER
5
2
100
AcDbSymbolTable
70
2
0
LAYER
5
50
100
AcDbSymbolTableRecord
100
AcDbLayerTableRecord
2
0
70
0
6
CONTINUOUS
0
ENDTAB
0
TABLE
2
STYLE
5
3
100
AcDbSymbolTable
70
1
0
STYLE
5
11
100
AcDbSymbolTableRecord
100
AcDbTextStyleTableRecord
2
STANDARD
70
0
0
ENDTAB
0
TABLE
2
VIEW
5
6
100
AcDbSymbolTable
70
0
0
ENDTAB
0
TABLE
2
UCS
5
7
100
AcDbSymbolTable
70
0
0
ENDTAB
0
TABLE
2
APPID
5
9
100
AcDbSymbolTable
70
2
0
APPID
5
12
100
AcDbSymbolTableRecord
100
AcDbRegAppTableRecord
2
ACAD
70
0
0
ENDTAB
0
TABLE
2
DIMSTYLE
5
A
100
AcDbSymbolTable
70
1
0
ENDTAB
0
TABLE
2
BLOCK_RECORD
5
1
100
AcDbSymbolTable
70
1
0
BLOCK_RECORD
5
1F
100
AcDbSymbolTableRecord
100
AcDbBlockTableRecord
2
*MODEL_SPACE
0
BLOCK_RECORD
5
1B
100
AcDbSymbolTableRecord
100
AcDbBlockTableRecord
2
*PAPER_SPACE
0
ENDTAB
0
ENDSEC
0
SECTION
2
BLOCKS
0
BLOCK
5
20
100
AcDbEntity
100
AcDbBlockBegin
2
*MODEL_SPACE
0
ENDBLK
5
21
100
AcDbEntity
100
AcDbBlockEnd
0
BLOCK
5
1C
100
AcDbEntity
100
AcDbBlockBegin
2
*PAPER_SPACE
0
ENDBLK
5
1D
100
AcDbEntity
100
AcDbBlockEnd
0
ENDSEC
0
SECTION
2
ENTITIES
0
LINE
5
100
100
AcDbEntity
8
0
100
AcDbLine
10
10
20
-79.999999572687287
30
0
11
-10.000000127444142
21
-79.999999683055577
31
0
0
CIRCLE
5
101
100
AcDbEntity
8
0
100
AcDbCircle
10
-10.000000137855235
20
11.999999770241274
30
0
40
1.25
210
0
220
0
230
1
0
CIRCLE
5
102
100
AcDbEntity
8
0
100
AcDbCircle
10
9.9999996879131281
20
12.000000280017844
30
0
40
1.25
210
0
220
0
230
1
0
CIRCLE
5
103
100
AcDbEntity
8
0
100
AcDbCircle
10
10.000000197689705
20
-7.9999997331135608
30
0
40
1.25
210
0
220
0
230
1
0
CIRCLE
5
104
100
AcDbEntity
8
0
100
AcDbCircle
10
-10.000000025813554
20
-22.999999981561743
30
0
40
1.25
210
0
220
0
230
1
0
CIRCLE
5
105
100
AcDbEntity
8
0
100
AcDbCircle
10
9.9999999500214258
20
-23.000000023355547
30
0
40
1.25
210
0
220
0
230
1
0
CIRCLE
5
106
100
AcDbEntity
8
0
100
AcDbCircle
10
9.9999999082276236
20
-43.000000012048893
30
0
40
1.25
210
0
220
0
230
1
0
CIRCLE
5
107
100
AcDbEntity
8
0
100
AcDbCircle
10
-10.00000014661785
20
-43.000000771030365
30
0
40
1.25
210
0
220
0
230
1
0
CIRCLE
5
108
100
AcDbEntity
8
0
100
AcDbCircle
10
-10.000000079702078
20
-8.0000002428901489
30
0
40
1.25
210
0
220
0
230
1
0
CIRCLE
5
109
100
AcDbEntity
8
0
100
AcDbCircle
10
12.500000134110451
20
-75.00000111758709
30
0
40
1.5000000000000004
210
0
220
0
230
1
0
CIRCLE
5
110
100
AcDbEntity
8
0
100
AcDbCircle
10
-12.500000149011612
20
-75.00000111758709
30
0
40
1.5000000000000033
210
0
220
0
230
1
0
LINE
5
111
100
AcDbEntity
8
0
100
AcDbLine
10
-11.500000193715096
20
-54.000000864267349
30
0
11
-9.5000001639127731
21
-54.000000864267349
31
0
0
LINE
5
112
100
AcDbEntity
8
0
100
AcDbLine
10
-9.5000001639127731
20
-55.000000797212117
30
0
11
-9.5000001639127731
21
-58.000000864267349
31
0
0
LINE
5
113
100
AcDbEntity
8
0
100
AcDbLine
10
-9.5000001639127731
20
-59.000000938773155
30
0
11
-11.500000193715096
21
-59.000000938773155
31
0
0
LINE
5
114
100
AcDbEntity
8
0
100
AcDbLine
10
-11.500000193715096
20
-58.000000864267349
30
0
11
-11.500000193715096
21
-55.000000797212117
31
0
0
CIRCLE
5
115
100
AcDbEntity
8
0
100
AcDbCircle
10
-11.499974161544404
20
36.034588675378039
30
0
40
1.4999999999999987
210
0
220
0
230
1
0
CIRCLE
5
116
100
AcDbEntity
8
0
100
AcDbCircle
10
11.499999830995476
20
36.000000491132184
30
0
40
1.5000000000000009
210
0
220
0
230
1
0
CIRCLE
5
117
100
AcDbEntity
8
0
100
AcDbCircle
10
-10.00000072371374
20
24.000000282081416
30
0
40
1.4999999999999987
210
0
220
0
230
1
0
CIRCLE
5
118
100
AcDbEntity
8
0
100
AcDbCircle
10
10.00000018550182
20
24.000000193108789
30
0
40
1.5000000000000009
210
0
220
0
230
1
0
LINE
5
119
100
AcDbEntity
8
0
100
AcDbLine
10
11.500002215181295
20
24.000000491132418
30
0
11
10.00000018550182
21
24.000000193108789
31
0
0
CIRCLE
5
120
100
AcDbEntity
8
0
100
AcDbCircle
10
-61.818020038221832
20
-51.818020490907927
30
0
40
1.0000000149011612
210
0
220
-0
230
1
0
CIRCLE
5
121
100
AcDbEntity
8
0
100
AcDbCircle
10
-68.181981163731166
20
-51.818020490907927
30
0
40
1.0000000149011612
210
0
220
-0
230
1
0
CIRCLE
5
122
100
AcDbEntity
8
0
100
AcDbCircle
10
-68.181981163731166
20
-58.181981616417261
30
0
40
1.0000000149011612
210
0
220
-0
230
1
0
CIRCLE
5
123
100
AcDbEntity
8
0
100
AcDbCircle
10
-61.818019366506441
20
-58.181978863701218
30
0
40
0.99999997764825821
210
0
220
-0
230
1
0
CIRCLE
5
124
100
AcDbEntity
8
0
100
AcDbCircle
10
68.181979961778168
20
-51.818020490907927
30
0
40
1.0000000149011612
210
0
220
-0
230
1
0
CIRCLE
5
125
100
AcDbEntity
8
0
100
AcDbCircle
10
61.818018836268827
20
-51.818020490907927
30
0
40
1.0000000149011612
210
0
220
-0
230
1
0
CIRCLE
5
126
100
AcDbEntity
8
0
100
AcDbCircle
10
61.818018836268827
20
-58.181981616417261
30
0
40
1.0000000149011612
210
0
220
-0
230
1
0
CIRCLE
5
127
100
AcDbEntity
8
0
100
AcDbCircle
10
68.181980633493552
20
-58.181978863701218
30
0
40
0.99999997764825821
210
0
220
-0
230
1
0
LINE
5
128
100
AcDbEntity
8
0
100
AcDbLine
10
-57.51668640821768
20
-50.000000387421579
30
0
11
-20.000001196475587
21
-50.000000387421579
31
0
0
LINE
5
129
100
AcDbEntity
8
0
100
AcDbLine
10
-20.000001151495304
20
-60.000000387421593
30
0
11
-57.516686229005074
21
-60.000000387421593
31
0
0
LINE
5
130
100
AcDbEntity
8
0
100
AcDbLine
10
19.999999715124858
20
-60.000000387421593
30
0
11
57.516685900196208
21
-60.000000387421593
31
0
0
LINE
5
131
100
AcDbEntity
8
0
100
AcDbLine
10
57.516685900196201
20
-50.000000417223902
30
0
11
19.999999715124829
21
-50.000000422632915
31
0
0
LINE
5
132
100
AcDbEntity
8
0
100
AcDbLine
10
-15.000000348180706
20
-74.999999974344618
30
0
11
-15.000001151495344
21
-64.999999985764276
31
0
0
LINE
5
133
100
AcDbEntity
8
0
100
AcDbLine
10
-15.000001203597471
20
-45.000000458640358
30
0
11
-15.00000007121878
21
35.000000071218786
31
0
0
LINE
5
134
100
AcDbEntity
8
0
100
AcDbLine
10
14.999999990984962
20
34.999999981969935
30
0
11
14.999999704306815
21
-45.000000399193851
31
0
0
LINE
5
135
100
AcDbEntity
8
0
100
AcDbLine
10
14.999999699298474
20
-65.000000545685566
30
0
11
15
21
-74.999999414423314
31
0
0
LWPOLYLINE
5
136
100
AcDbEntity
8
0
100
AcDbPolyline
90
8
70
1
43
0.0
10
8.0000001192092913
20
-52.000000789761543
10
8.0000001192092913
20
-51.00000074505806
42
0.41421356237309698
10
7.0000001192092887
20
-50.00000074505806
10
3.0000000298023224
20
-50.00000074505806
42
0.41421356237309687
10
2.0000000298023224
20
-51.00000074505806
10
2.0000000298023224
20
-52.000000789761543
42
0.41421356237309664
10
3.0000000298023215
20
-53.000000789761543
10
7.0000001192092949
20
-53.000000789761543
42
0.41421356237309537
0
LWPOLYLINE
5
137
100
AcDbEntity
8
0
100
AcDbPolyline
90
8
70
1
43
0.0
10
-8.0000001192092913
20
-51.00000074505806
10
-8.0000001192092913
20
-52.000000789761543
42
0.41421356237309598
10
-7.0000001192092913
20
-53.000000789761543
10
-3.0000000298023224
20
-53.000000789761543
42
0.41421356237309687
10
-2.0000000298023224
20
-52.000000789761543
10
-2.0000000298023224
20
-51.00000074505806
42
0.41421356237309664
10
-3.0000000298023215
20
-50.00000074505806
10
-7.0000001192092931
20
-50.00000074505806
42
0.4142135623730957
0
LWPOLYLINE
5
138
100
AcDbEntity
8
0
100
AcDbPolyline
90
8
70
1
43
0.0
10
10.000000163912773
20
-18.000000357627869
10
10.000000163912773
20
-16.00000029802322
42
0.41421356237309048
10
9.0000001639127731
20
-15.000000298023224
10
3.0000000298023224
20
-15.000000298023224
42
0.41421356237309459
10
2.0000000298023224
20
-16.000000298023224
10
2.0000000298023224
20
-18.000000357627869
42
0.41421356237309459
10
3.0000000298023224
20
-19.000000357627869
10
9.0000001639127731
20
-19.000000357627869
42
0.41421356237309243
0
LWPOLYLINE
5
139
100
AcDbEntity
8
0
100
AcDbPolyline
90
8
70
1
43
0.0
10
-10.000000134110451
20
-16.000000298023231
10
-10.000000134110451
20
-18.000000357627862
42
0.41421356237309276
10
-9.0000001341104472
20
-19.000000357627869
10
-3.0000000298023224
20
-19.000000357627869
42
0.41421356237309459
10
-2.0000000298023224
20
-18.000000357627869
10
-2.0000000298023224
20
-16.000000298023224
42
0.41421356237309459
10
-3.0000000298023224
20
-15.000000298023224
10
-9.0000001341104472
20
-15.000000298023224
42
0.41421356237309276
0
LWPOLYLINE
5
140
100
AcDbEntity
8
0
100
AcDbPolyline
90
8
70
1
43
0.0
10
10.000000149011612
20
21.000000327825546
10
10.000000149011612
20
18.000000253319747
42
-0.41421356237309437
10
9.0000001490116084
20
17.00000025331974
10
3.0000000298023224
20
17.00000025331974
42
-0.41421356237309459
10
2.0000000298023224
20
18.00000025331974
10
2.0000000298023224
20
21.000000327825546
42
-0.41421356237309209
10
3.0000000298023224
20
22.000000327825546
10
9.0000001490116119
20
22.000000327825546
42
-0.41421356237309243
0
LWPOLYLINE
5
141
100
AcDbEntity
8
0
100
AcDbPolyline
90
8
70
1
43
0.0
10
-10.000000149011612
20
18.000000253319747
10
-10.000000149011614
20
21.000000327825539
42
-0.41421356237309342
10
-9.0000001490116048
20
22.000000327825546
10
-3.0000000298023224
20
22.000000327825546
42
-0.41421356237309209
10
-2.0000000298023224
20
21.000000327825546
10
-2.0000000298023228
20
18.00000025331974
42
-0.41421356237309459
10
-3.0000000298023224
20
17.00000025331974
10
-9.0000001490116066
20
17.00000025331974
42
-0.4142135623730947
0
ARC
5
142
100
AcDbEntity
8
0
100
AcDbCircle
10
19.999999715124829
20
-45.00000041722393
30
0
40
5.0000000108180132
210
0
220
0
230
1
100
AcDbArc
50
180
51
270
0
ARC
5
143
100
AcDbEntity
8
0
100
AcDbCircle
10
-20.000001196475591
20
-45.000000387421579
30
0
40
5
210
0
220
0
230
1
100
AcDbArc
50
270.00000000000006
51
360
0
ARC
5
144
100
AcDbEntity
8
0
100
AcDbCircle
10
-20.000001151495308
20
-65.000000387421593
30
0
40
4.9999999999999805
210
0
220
-0
230
1
100
AcDbArc
50
4.5977117930529886e-06
51
89.999999999999972
0
ARC
5
145
100
AcDbEntity
8
0
100
AcDbCircle
10
-10.00000007121878
20
35
30
0
40
4.9999999999999032
210
0
220
0
230
1
100
AcDbArc
50
90.00001138364874
51
180
0
ARC
5
146
100
AcDbEntity
8
0
100
AcDbCircle
10
10
20
35.000000000000007
30
0
40
4.9999999909849624
210
-0
220
0
230
1
100
AcDbArc
50
0
51
90
0
ARC
5
147
100
AcDbEntity
8
0
100
AcDbCircle
10
19.999999715124854
20
-65.000000387421579
30
0
40
4.9999999999999822
210
0
220
-0
230
1
100
AcDbArc
50
89.999999999999972
51
180.00000170754728
0
ARC
5
148
100
AcDbEntity
8
0
100
AcDbCircle
10
10.000000000000004
20
-74.999999572687287
30
0
40
5
210
0
220
0
230
1
100
AcDbArc
50
-90.000000000000057
51
1.7075472925031877e-06
0
ARC
5
149
100
AcDbEntity
8
0
100
AcDbCircle
10
-10.000000127444142
20
-74.999999572687287
30
0
40
5.000000220736581
210
0
220
0
230
1
100
AcDbArc
50
180.00000459771181
51
270
0
LINE
5
150
100
AcDbEntity
8
0
100
AcDbLine
10
6.0000001043081284
20
37.000000551342964
30
0
11
-6.0000001043081275
21
37.000000551342964
31
0
0
LINE
5
151
100
AcDbEntity
8
0
100
AcDbLine
10
-7.0000001043081284
20
38.000000551342964
30
0
11
-7.0000001043081284
21
39.000000397364275
31
0
0
LINE
5
152
100
AcDbEntity
8
0
100
AcDbLine
10
7.0000001043081284
20
39.500000496705361
30
0
11
7.0000001043081292
21
38.000000551342964
31
0
0
LINE
5
153
100
AcDbEntity
8
0
100
AcDbLine
10
-10.000001064629538
20
39.999999999999801
30
0
11
-8.0000003029902782
21
40.000000397364261
31
0
0
LINE
5
154
100
AcDbEntity
8
0
100
AcDbLine
10
7.5000002036492051
20
40.000000496705354
30
0
11
10
21
40.000000000000007
31
0
0
ARC
5
155
100
AcDbEntity
8
0
100
AcDbCircle
10
-8.0000001043081284
20
39.000000397364275
30
0
40
0.99999999999999978
210
0
220
0
230
1
100
AcDbArc
50
0
51
90.000011383648655
0
ARC
5
156
100
AcDbEntity
8
0
100
AcDbCircle
10
-6.000000104308123
20
38.000000551342971
30
0
40
1.0000000000000053
210
0
220
0
230
1
100
AcDbArc
50
180
51
269.99999999999972
0
ARC
5
157
100
AcDbEntity
8
0
100
AcDbCircle
10
6.0000001043081239
20
38.000000551342971
30
0
40
1.0000000000000053
210
0
220
0
230
1
100
AcDbArc
50
270.00000000000023
51
360
0
ARC
5
158
100
AcDbEntity
8
0
100
AcDbCircle
10
7.5000001043081337
20
39.500000496705361
30
0
40
0.50000000000000366
210
0
220
-0
230
1
100
AcDbArc
50
89.999988616351771
51
180
0
ARC
5
159
100
AcDbEntity
8
0
100
AcDbCircle
10
-11.500000178813934
20
-54.500000812113285
30
0
40
0.4999999478459396
210
0
220
0
230
1
100
AcDbArc
50
90.000001707547469
51
269.99999829245269
0
ARC
5
160
100
AcDbEntity
8
0
100
AcDbCircle
10
-9.5000001788139343
20
-54.500000812113285
30
0
40
0.4999999850988337
210
0
220
0
230
1
100
AcDbArc
50
-89.999998292452659
51
89.999998292452531
0
ARC
5
161
100
AcDbEntity
8
0
100
AcDbCircle
10
-11.500000178813934
20
-58.500000812113285
30
0
40
0.4999999478459396
210
0
220
0
230
1
100
AcDbArc
50
90.000001707547469
51
269.99999829245269
0
ARC
5
162
100
AcDbEntity
8
0
100
AcDbCircle
10
-9.5000001788139343
20
-58.500000812113285
30
0
40
0.4999999850988337
210
0
220
0
230
1
100
AcDbArc
50
-89.999998292452659
51
89.999998292452531
0
LINE
5
163
100
AcDbEntity
8
0
100
AcDbLine
10
-9.5000001639127731
20
-67.000000797212124
30
0
11
-9.5000001639127731
21
-70.000000864267349
31
0
0
LINE
5
164
100
AcDbEntity
8
0
100
AcDbLine
10
-11.500000193715096
20
-66.000000864267349
30
0
11
-9.5000001639127731
21
-66.000000864267349
31
0
0
LINE
5
165
100
AcDbEntity
8
0
100
AcDbLine
10
-11.500000193715096
20
-70.000000864267349
30
0
11
-11.500000193715096
21
-67.000000797212124
31
0
0
ARC
5
166
100
AcDbEntity
8
0
100
AcDbCircle
10
-9.5000001788139343
20
-70.500000812113285
30
0
40
0.4999999850988337
210
0
220
0
230
1
100
AcDbArc
50
-89.999998292452659
51
89.999998292452531
0
LINE
5
167
100
AcDbEntity
8
0
100
AcDbLine
10
-9.5000001639127731
20
-71.000000938773155
30
0
11
-11.500000193715096
21
-71.000000938773155
31
0
0
ARC
5
168
100
AcDbEntity
8
0
100
AcDbCircle
10
-11.500000178813934
20
-66.500000812113285
30
0
40
0.4999999478459396
210
0
220
0
230
1
100
AcDbArc
50
90.000001707547469
51
269.99999829245269
0
ARC
5
169
100
AcDbEntity
8
0
100
AcDbCircle
10
-11.500000178813934
20
-70.500000812113285
30
0
40
0.4999999478459396
210
0
220
0
230
1
100
AcDbArc
50
90.000001707547469
51
269.99999829245269
0
ARC
5
170
100
AcDbEntity
8
0
100
AcDbCircle
10
-9.5000001788139343
20
-66.500000812113285
30
0
40
0.4999999850988337
210
0
220
0
230
1
100
AcDbArc
50
-89.999998292452659
51
89.999998292452531
0
ARC
5
171
100
AcDbEntity
8
0
100
AcDbCircle
10
11.499999821186066
20
-70.500000812113285
30
0
40
0.4999999850988337
210
0
220
0
230
1
100
AcDbArc
50
-89.999998292452659
51
89.999998292452531
0
LINE
5
172
100
AcDbEntity
8
0
100
AcDbLine
10
9.4999998062849045
20
-66.000000864267349
30
0
11
11.499999836087227
21
-66.000000864267349
31
0
0
LINE
5
173
100
AcDbEntity
8
0
100
AcDbLine
10
11.499999836087227
20
-67.000000797212124
30
0
11
11.499999836087227
21
-70.000000864267349
31
0
0
ARC
5
174
100
AcDbEntity
8
0
100
AcDbCircle
10
11.499999821186066
20
-66.500000812113285
30
0
40
0.4999999850988337
210
0
220
0
230
1
100
AcDbArc
50
-89.999998292452659
51
89.999998292452531
0
LINE
5
175
100
AcDbEntity
8
0
100
AcDbLine
10
9.4999998062849045
20
-70.000000864267349
30
0
11
9.4999998062849045
21
-67.000000797212124
31
0
0
LINE
5
176
100
AcDbEntity
8
0
100
AcDbLine
10
11.499999836087227
20
-71.000000938773155
30
0
11
9.4999998062849045
21
-71.000000938773155
31
0
0
ARC
5
177
100
AcDbEntity
8
0
100
AcDbCircle
10
9.4999998211860675
20
-70.500000812113285
30
0
40
0.4999999478459396
210
0
220
0
230
1
100
AcDbArc
50
90.000001707547668
51
269.99999829245246
0
ARC
5
178
100
AcDbEntity
8
0
100
AcDbCircle
10
9.4999998211860675
20
-66.500000812113285
30
0
40
0.4999999478459396
210
0
220
0
230
1
100
AcDbArc
50
90.000001707547668
51
269.99999829245246
0
LINE
5
179
100
AcDbEntity
8
0
100
AcDbLine
10
9.4999998062849045
20
-54.000000864267349
30
0
11
11.499999836087227
21
-54.000000864267349
31
0
0
ARC
5
180
100
AcDbEntity
8
0
100
AcDbCircle
10
9.4999998211860675
20
-58.500000812113285
30
0
40
0.4999999478459396
210
0
220
0
230
1
100
AcDbArc
50
90.000001707547668
51
269.99999829245246
0
LINE
5
181
100
AcDbEntity
8
0
100
AcDbLine
10
11.499999836087227
20
-55.000000797212117
30
0
11
11.499999836087227
21
-58.000000864267349
31
0
0
ARC
5
182
100
AcDbEntity
8
0
100
AcDbCircle
10
11.499999821186066
20
-54.500000812113285
30
0
40
0.4999999850988337
210
0
220
0
230
1
100
AcDbArc
50
-89.999998292452659
51
89.999998292452531
0
LINE
5
183
100
AcDbEntity
8
0
100
AcDbLine
10
9.4999998062849045
20
-58.000000864267349
30
0
11
9.4999998062849045
21
-55.000000797212117
31
0
0
LINE
5
184
100
AcDbEntity
8
0
100
AcDbLine
10
11.499999836087227
20
-59.000000938773155
30
0
11
9.4999998062849045
21
-59.000000938773155
31
0
0
ARC
5
185
100
AcDbEntity
8
0
100
AcDbCircle
10
9.4999998211860675
20
-54.500000812113285
30
0
40
0.4999999478459396
210
0
220
0
230
1
100
AcDbArc
50
90.000001707547668
51
269.99999829245246
0
ARC
5
186
100
AcDbEntity
8
0
100
AcDbCircle
10
11.499999821186066
20
-58.500000812113285
30
0
40
0.4999999850988337
210
0
220
0
230
1
100
AcDbArc
50
-89.999998292452659
51
89.999998292452531
0
CIRCLE
5
187
100
AcDbEntity
8
0
100
AcDbCircle
10
65.000000683700335
20
-55.00000040232274
30
0
40
2.5
210
0
220
0
230
1
0
CIRCLE
5
188
100
AcDbEntity
8
0
100
AcDbCircle
10
-65.00000125345062
20
-55.00000052153203
30
0
40
2.5
210
0
220
0
230
1
0
ARC
5
189
100
AcDbEntity
8
0
100
AcDbCircle
10
65.003692685607263
20
-46.000001159593786
30
0
40
3.0000000000000036
210
0
220
0
230
1
100
AcDbArc
50
189.57056421206514
51
350.38242775834516
0
ARC
5
190
100
AcDbEntity
8
0
100
AcDbCircle
10
65.000000683700335
20
-55.00000040232274
30
0
40
9.0000000000000142
210
0
220
0
230
1
100
AcDbArc
50
109.16463243892608
51
146.25101151820169
0
ARC
5
191
100
AcDbEntity
8
0
100
AcDbCircle
10
73.997045387663803
20
-55.230622593109267
30
0
40
3.0000000000000031
210
0
220
0
230
1
100
AcDbArc
50
98.125721038785983
51
258.93758458506477
0
ARC
5
192
100
AcDbEntity
8
0
100
AcDbCircle
10
65.000000683700335
20
-55.00000040232274
30
0
40
9.0000000000000107
210
0
220
-0
230
1
100
AcDbArc
50
17.719789265646359
51
70.788359531484176
0
ARC
5
193
100
AcDbEntity
8
0
100
AcDbCircle
10
65.000000683700335
20
-55.00000040232274
30
0
40
9
210
0
220
0
230
1
100
AcDbArc
50
213.74898848179839
51
250.8417114830238
0
ARC
5
194
100
AcDbEntity
8
0
100
AcDbCircle
10
65.000000683700335
20
-55.00000040232274
30
0
40
8.9999999999999964
210
0
220
0
230
1
100
AcDbArc
50
289.2179843904679
51
339.34351635820451
0
ARC
5
195
100
AcDbEntity
8
0
100
AcDbCircle
10
65.00468918642855
20
-63.999999181097223
30
0
40
3.0000000000001776
210
0
220
-0
230
1
100
AcDbArc
50
9.6239161636068626
51
170.43577970988494
0
ARC
5
196
100
AcDbEntity
8
0
100
AcDbCircle
10
-65.00000125345062
20
-64.000000655642481
30
0
40
3.0000000000000027
210
0
220
-0
230
1
100
AcDbArc
50
9.5940680825475582
51
170.40593191745236
0
ARC
5
197
100
AcDbEntity
8
0
100
AcDbCircle
10
-65.00000125345062
20
-55.00000052153203
30
0
40
9.0000001341103939
210
-0
220
0
230
1
100
AcDbArc
50
289.18813616509283
51
326.2510130013755
0
ARC
5
198
100
AcDbEntity
8
0
100
AcDbCircle
10
-74.00000138756107
20
-55.00000052153203
30
0
40
2.9999999999999982
210
0
220
0
230
1
100
AcDbArc
50
-80.405931917452776
51
80.405931917452804
0
ARC
5
199
100
AcDbEntity
8
0
100
AcDbCircle
10
-65.00000125345062
20
-55.00000052153203
30
0
40
9.0000001341104188
210
0
220
0
230
1
100
AcDbArc
50
199.1881361650928
51
250.8118638349072
0
ARC
5
200
100
AcDbEntity
8
0
100
AcDbCircle
10
-65.00000125345062
20
-46.000000387421579
30
0
40
3.0000000000000044
210
0
220
0
230
1
100
AcDbArc
50
189.59406808254661
51
350.40593191745347
0
ARC
5
201
100
AcDbEntity
8
0
100
AcDbCircle
10
-65.00000125345062
20
-55.00000052153203
30
0
40
9.0000001341104525
210
0
220
-0
230
1
100
AcDbArc
50
33.748989052249769
51
70.811863834907157
0
ARC
5
202
100
AcDbEntity
8
0
100
AcDbCircle
10
-65.00000125345062
20
-55.00000052153203
30
0
40
9.0000001341104365
210
0
220
0
230
1
100
AcDbArc
50
109.18813616509279
51
160.8118638349072
0
CIRCLE
5
203
100
AcDbEntity
8
0
100
AcDbCircle
10
-4.9978573501974211e-08
20
-10.000000023355549
30
0
40
1.2500000000000002
210
0
220
0
230
1
0
CIRCLE
5
204
100
AcDbEntity
8
0
100
AcDbCircle
10
-4.9978572391751186e-08
20
-46.06244586386947
30
0
40
1.2499999999999998
210
0
220
0
230
1
0
ENDSEC
0
SECTION
2
OBJECTS
0
DICTIONARY
5
C
100
AcDbDictionary
3
ACAD_GROUP
350
D
3
ACAD_MLINESTYLE
350
17
0
DICTIONARY
5
D
100
AcDbDictionary
0
DICTIONARY
5
1A
330
C
100
AcDbDictionary
0
DICTIONARY
5
17
100
AcDbDictionary
0
ENDSEC
0
EOF
