0
SECTION
2
HEADER
9
$INSUNITS
70
4
9
$ACADVER
1
AC1014
9
$HANDSEED
5
FFFF
0
ENDSEC
0
SECTION
2
TABLES
0
TABLE
2
VPORT
5
8
100
AcDbSymbolTable
0
ENDTAB
0
TABLE
2
LTYPE
5
5
100
AcDbSymbolTable
0
LTYPE
5
14
100
AcDbSymbolTableRecord
100
AcDbLinetypeTableRecord
2
BYBLOCK
70
0
0
LTYPE
5
15
100
AcDbSymbolTableRecord
100
AcDbLinetypeTableRecord
2
BYLAYER
70
0
0
ENDTAB
0
TABLE
2
LAYER
5
2
100
AcDbSymbolTable
70
2
0
LAYER
5
50
100
AcDbSymbolTableRecord
100
AcDbLayerTableRecord
2
0
70
0
6
CONTINUOUS
0
ENDTAB
0
TABLE
2
STYLE
5
3
100
AcDbSymbolTable
70
1
0
STYLE
5
11
100
AcDbSymbolTableRecord
100
AcDbTextStyleTableRecord
2
STANDARD
70
0
0
ENDTAB
0
TABLE
2
VIEW
5
6
100
AcDbSymbolTable
70
0
0
ENDTAB
0
TABLE
2
UCS
5
7
100
AcDbSymbolTable
70
0
0
ENDTAB
0
TABLE
2
APPID
5
9
100
AcDbSymbolTable
70
2
0
APPID
5
12
100
AcDbSymbolTableRecord
100
AcDbRegAppTableRecord
2
ACAD
70
0
0
ENDTAB
0
TABLE
2
DIMSTYLE
5
A
100
AcDbSymbolTable
70
1
0
ENDTAB
0
TABLE
2
BLOCK_RECORD
5
1
100
AcDbSymbolTable
70
1
0
BLOCK_RECORD
5
1F
100
AcDbSymbolTableRecord
100
AcDbBlockTableRecord
2
*MODEL_SPACE
0
BLOCK_RECORD
5
1B
100
AcDbSymbolTableRecord
100
AcDbBlockTableRecord
2
*PAPER_SPACE
0
ENDTAB
0
ENDSEC
0
SECTION
2
BLOCKS
0
BLOCK
5
20
100
AcDbEntity
100
AcDbBlockBegin
2
*MODEL_SPACE
0
ENDBLK
5
21
100
AcDbEntity
100
AcDbBlockEnd
0
BLOCK
5
1C
100
AcDbEntity
100
AcDbBlockBegin
2
*PAPER_SPACE
0
ENDBLK
5
1D
100
AcDbEntity
100
AcDbBlockEnd
0
ENDSEC
0
SECTION
2
ENTITIES
0
LINE
5
100
100
AcDbEntity
8
0
100
AcDbLine
10
-51.418177426980272
20
32.711514278551299
30
0
11
-18.772988175198414
21
24.006130478076134
31
0
0
LINE
5
101
100
AcDbEntity
8
0
100
AcDbLine
10
-54.237885037698099
20
23.086389110231636
30
0
11
-17.167381265055088
21
12.377132464801432
31
0
0
LINE
5
102
100
AcDbEntity
8
0
100
AcDbLine
10
51.418176886818259
20
32.711514134508093
30
0
11
18.772988175198414
21
24.006130478076134
31
0
0
LINE
5
103
100
AcDbEntity
8
0
100
AcDbLine
10
17.167381265055099
20
12.377132464801434
30
0
11
54.23788482833703
21
23.086389049749553
31
0
0
ARC
5
104
100
AcDbEntity
8
0
100
AcDbCircle
10
10.000000223517421
20
35.000000596046455
30
0
40
4.9999999999999956
210
-0
220
0
230
1
100
AcDbArc
50
0
51
90.000000000000043
0
ARC
5
105
100
AcDbEntity
8
0
100
AcDbCircle
10
-10.000000223517421
20
35.000000596046455
30
0
40
4.9999999999999956
210
0
220
-0
230
1
100
AcDbArc
50
89.999999999999972
51
180
0
ARC
5
106
100
AcDbEntity
8
0
100
AcDbCircle
10
10.000000223517421
20
-75.000001192092896
30
0
40
5.0000000000000036
210
0
220
0
230
1
100
AcDbArc
50
-75.522487814070118
51
0
0
ARC
5
107
100
AcDbEntity
8
0
100
AcDbCircle
10
-10.000000223517421
20
-75.000001192092896
30
0
40
5
210
0
220
0
230
1
100
AcDbArc
50
180
51
255.52248781407013
0
LINE
5
108
100
AcDbEntity
8
0
100
AcDbLine
10
-15.000000223517421
20
-75.000001192092896
30
0
11
-15.000000223517418
21
9.4949899162780032
31
0
0
LINE
5
109
100
AcDbEntity
8
0
100
AcDbLine
10
-15.000000223517418
20
26.904835296879877
30
0
11
-15.000000223517418
21
35.000000596046448
31
0
0
LINE
5
110
100
AcDbEntity
8
0
100
AcDbLine
10
15.000000223517418
20
35.000000596046448
30
0
11
15.000000223517418
21
26.904835296879874
31
0
0
LINE
5
111
100
AcDbEntity
8
0
100
AcDbLine
10
15.000000223517416
20
9.494989916278012
30
0
11
15.000000223517418
21
-75.000001192092896
31
0
0
ARC
5
112
100
AcDbEntity
8
0
100
AcDbCircle
10
18.000000223517414
20
26.904835296879874
30
0
40
2.999999999999996
210
0
220
0
230
1
100
AcDbArc
50
180
51
284.93141717813762
0
ARC
5
113
100
AcDbEntity
8
0
100
AcDbCircle
10
-18.000000223517418
20
26.904835296879877
30
0
40
3.0000000000000036
210
0
220
0
230
1
100
AcDbArc
50
-104.93141717813755
51
0
0
ARC
5
114
100
AcDbEntity
8
0
100
AcDbCircle
10
-18.000000223517421
20
9.4949899162780032
30
0
40
3.0000000000000027
210
0
220
-0
230
1
100
AcDbArc
50
0
51
73.886581766910538
0
ARC
5
115
100
AcDbEntity
8
0
100
AcDbCircle
10
18.000000223517411
20
9.494989916278012
30
0
40
2.9999999999999929
210
0
220
0
230
1
100
AcDbArc
50
106.11341823308912
51
180
0
LWPOLYLINE
5
116
100
AcDbEntity
8
0
100
AcDbPolyline
90
8
70
1
43
0.0
10
-9.5000001415610313
20
-54.000000804662704
10
-11.500000171363354
20
-54.000000804662704
42
0.99999999999999989
10
-11.500000171363354
20
-55.000000819563866
10
-11.500000171363354
20
-58.000000864267349
42
0.99999999999999989
10
-11.500000171363354
20
-59.00000087916851
10
-9.5000001415610313
20
-59.00000087916851
42
0.99999999999999989
10
-9.5000001415610313
20
-58.000000864267349
10
-9.5000001415610313
20
-55.000000819563866
42
0.99999999999999989
0
LWPOLYLINE
5
117
100
AcDbEntity
8
0
100
AcDbPolyline
90
8
70
1
43
0.0
10
-9.5000001415610313
20
-66.000000983476639
10
-11.500000171363354
20
-66.000000983476639
42
0.99999999999999989
10
-11.500000171363354
20
-67.0000009983778
10
-11.500000171363354
20
-70.000001043081284
42
0.99999999999999989
10
-11.500000171363354
20
-71.000001057982445
10
-9.5000001415610313
20
-71.000001057982445
42
0.99999999999999989
10
-9.5000001415610313
20
-70.000001043081284
10
-9.5000001415610313
20
-67.0000009983778
42
0.99999999999999989
0
LWPOLYLINE
5
118
100
AcDbEntity
8
0
100
AcDbPolyline
90
8
70
1
43
0.0
10
11.500000171363354
20
-54.000000804662704
10
9.5000001415610313
20
-54.000000804662704
42
0.99999999999999989
10
9.5000001415610313
20
-55.000000819563866
10
9.5000001415610313
20
-58.000000864267349
42
0.99999999999999989
10
9.5000001415610313
20
-59.00000087916851
10
11.500000171363354
20
-59.00000087916851
42
0.99999999999999989
10
11.500000171363354
20
-58.000000864267349
10
11.500000171363354
20
-55.000000819563866
42
0.99999999999999989
0
LWPOLYLINE
5
119
100
AcDbEntity
8
0
100
AcDbPolyline
90
8
70
1
43
0.0
10
11.500000171363354
20
-66.000000983476639
10
9.5000001415610313
20
-66.000000983476639
42
0.99999999999999989
10
9.5000001415610313
20
-67.0000009983778
10
9.5000001415610313
20
-70.000001043081284
42
0.99999999999999989
10
9.5000001415610313
20
-71.000001057982445
10
11.500000171363354
20
-71.000001057982445
42
0.99999999999999989
10
11.500000171363354
20
-70.000001043081284
10
11.500000171363354
20
-67.0000009983778
42
0.99999999999999989
0
LWPOLYLINE
5
120
100
AcDbEntity
8
0
100
AcDbPolyline
90
8
70
1
43
0.0
10
8.0000001192092913
20
-52.000000789761543
10
8.0000001192092913
20
-51.00000074505806
42
0.41421356237309664
10
7.0000001192092896
20
-50.00000074505806
10
3.0000000298023224
20
-50.00000074505806
42
0.41421356237309687
10
2.0000000298023224
20
-51.00000074505806
10
2.0000000298023224
20
-52.000000789761543
42
0.41421356237309664
10
3.0000000298023215
20
-53.000000789761543
10
7.0000001192092913
20
-53.000000789761543
42
0.41421356237309664
0
LWPOLYLINE
5
121
100
AcDbEntity
8
0
100
AcDbPolyline
90
8
70
1
43
0.0
10
-8.0000001192092913
20
-51.00000074505806
10
-8.0000001192092931
20
-52.000000789761543
42
0.41421356237309664
10
-7.0000001192092913
20
-53.000000789761543
10
-3.0000000298023224
20
-53.000000789761543
42
0.41421356237309687
10
-2.0000000298023224
20
-52.000000789761543
10
-2.0000000298023224
20
-51.00000074505806
42
0.41421356237309664
10
-3.0000000298023215
20
-50.00000074505806
10
-7.0000001192092896
20
-50.00000074505806
42
0.41421356237309664
0
CIRCLE
5
122
100
AcDbEntity
8
0
100
AcDbCircle
10
-11.500000171363354
20
36.000000536441803
30
0
40
1.5000000223517418
210
0
220
0
230
1
0
CIRCLE
5
123
100
AcDbEntity
8
0
100
AcDbCircle
10
11.500000171363354
20
36.000000536441803
30
0
40
1.5000000223517418
210
0
220
0
230
1
0
CIRCLE
5
124
100
AcDbEntity
8
0
100
AcDbCircle
10
10.000000149011612
20
24.000000357627869
30
0
40
1.5000000223517418
210
0
220
0
230
1
0
CIRCLE
5
125
100
AcDbEntity
8
0
100
AcDbCircle
10
-10.000000149011612
20
24.000000357627869
30
0
40
1.5000000223517418
210
0
220
0
230
1
0
CIRCLE
5
126
100
AcDbEntity
8
0
100
AcDbCircle
10
-62.250000913890105
20
33.897114778431046
30
0
40
1.0000000074505788
210
0
220
-0
230
1
0
CIRCLE
5
127
100
AcDbEntity
8
0
100
AcDbCircle
10
-57.750000913890105
20
26.102886144371094
30
0
40
1.0000001415610305
210
0
220
-0
230
1
0
CIRCLE
5
128
100
AcDbEntity
8
0
100
AcDbCircle
10
-56.102886532336214
20
32.250000498653968
30
0
40
0.99999999999999645
210
0
220
-0
230
1
0
CIRCLE
5
129
100
AcDbEntity
8
0
100
AcDbCircle
10
-63.897115136593847
20
27.750000447034836
30
0
40
1.0000000000000009
210
0
220
-0
230
1
0
CIRCLE
5
130
100
AcDbEntity
8
0
100
AcDbCircle
10
-60.000000819563866
20
30.000000447034836
30
0
40
2.5
210
0
220
0
230
1
0
CIRCLE
5
131
100
AcDbEntity
8
0
100
AcDbCircle
10
56.1028849941356
20
32.249999592749376
30
0
40
1.0000000074505788
210
0
220
-0
230
1
0
CIRCLE
5
132
100
AcDbEntity
8
0
100
AcDbCircle
10
59.999999400037609
20
29.99999962747097
30
0
40
2.5
210
0
220
-0
230
1
0
CIRCLE
5
133
100
AcDbEntity
8
0
100
AcDbCircle
10
62.249999348418477
20
33.897113974303252
30
0
40
0.99999999999999645
210
0
220
-0
230
1
0
CIRCLE
5
134
100
AcDbEntity
8
0
100
AcDbCircle
10
63.897113628195555
20
27.749999592749361
30
0
40
1.0000001415610305
210
0
220
-0
230
1
0
CIRCLE
5
135
100
AcDbEntity
8
0
100
AcDbCircle
10
57.749999400037609
20
26.102885310440982
30
0
40
1.0000000000000009
210
0
220
-0
230
1
0
LWPOLYLINE
5
136
100
AcDbEntity
8
0
100
AcDbPolyline
90
12
70
1
43
0.0
10
8.5000001490116102
20
-3.1754265321620778
10
6.5000001043081292
20
-2.0207259679732585
42
-0.26794919243112048
10
6.0000001043081275
20
-1.1547005641888197
10
6.0000001043081275
20
1.1547005641888191
42
-0.26794919243112358
10
6.5000001043081284
20
2.0207259679732581
10
8.5000001490116119
20
3.1754265321620778
42
-0.26794919243112297
10
9.5000001490116119
20
3.1754265321620778
10
11.500000193715094
20
2.0207259679732585
42
-0.2679491924311207
10
12.000000193715096
20
1.1547005641888186
10
12.000000193715097
20
-1.1547005641888199
42
-0.26794919243112109
10
11.500000193715094
20
-2.020725967973259
10
9.5000001490116119
20
-3.1754265321620778
42
-0.26794919243112264
0
LWPOLYLINE
5
137
100
AcDbEntity
8
0
100
AcDbPolyline
90
12
70
1
43
0.0
10
-0.49999985098838962
20
-3.1754265321620778
10
-2.4999998956918725
20
-2.0207259679732581
42
-0.26794919243112286
10
-2.9999998956918725
20
-1.1547005641888193
10
-2.9999998956918725
20
1.1547005641888199
42
-0.26794919243112275
10
-2.499999895691873
20
2.0207259679732581
10
-0.49999985098838906
20
3.1754265321620778
42
-0.26794919243112286
10
0.50000014901161072
20
3.1754265321620778
10
2.5000001937150946
20
2.0207259679732581
42
-0.26794919243112264
10
3.0000001937150946
20
1.1547005641888191
10
3.0000001937150946
20
-1.1547005641888195
42
-0.26794919243112264
10
2.5000001937150937
20
-2.0207259679732585
10
0.50000014901161061
20
-3.1754265321620778
42
-0.26794919243112264
0
LWPOLYLINE
5
138
100
AcDbEntity
8
0
100
AcDbPolyline
90
12
70
1
43
0.0
10
-6.4999998062849063
20
-2.0207259679732585
10
-8.4999998509883881
20
-3.1754265321620778
42
-0.26794919243112264
10
-9.4999998509883898
20
-3.1754265321620778
10
-11.499999895691872
20
-2.0207259679732594
42
-0.26794919243111998
10
-11.999999895691873
20
-1.1547005641888197
10
-11.999999895691873
20
1.1547005641888188
42
-0.2679491924311207
10
-11.499999895691872
20
2.0207259679732585
10
-9.4999998509883881
20
3.1754265321620778
42
-0.26794919243112297
10
-8.4999998509883881
20
3.1754265321620778
10
-6.4999998062849071
20
2.0207259679732585
42
-0.2679491924311237
10
-5.9999998062849063
20
1.1547005641888197
10
-5.9999998062849063
20
-1.1547005641888193
42
-0.26794919243112358
0
LWPOLYLINE
5
139
100
AcDbEntity
8
0
100
AcDbPolyline
90
12
70
1
43
0.0
10
7.0000001937150946
20
-11.020725967973258
10
5.0000001490116111
20
-12.175426532162078
42
-0.26794919243112475
10
4.0000001490116102
20
-12.175426532162078
10
2.0000001043081266
20
-11.020725967973258
42
-0.26794919243111975
10
1.5000001043081268
20
-10.154700564188817
10
1.5000001043081268
20
-7.8452994358111798
42
-0.26794919243112264
10
2.0000001043081275
20
-6.9792740320267397
10
4.0000001490116102
20
-5.8245734678379213
42
-0.26794919243112275
10
5.0000001490116111
20
-5.8245734678379213
10
7.0000001937150946
20
-6.9792740320267423
42
-0.26794919243112264
10
7.5000001937150937
20
-7.8452994358111807
10
7.5000001937150937
20
-10.154700564188818
42
-0.2679491924311237
0
LWPOLYLINE
5
140
100
AcDbEntity
8
0
100
AcDbPolyline
90
12
70
1
43
0.0
10
-7.4999998956918734
20
-10.154700564188817
10
-7.4999998956918734
20
-7.8452994358111781
42
-0.26794919243111931
10
-6.9999998956918734
20
-6.9792740320267406
10
-4.9999998509883898
20
-5.8245734678379213
42
-0.26794919243112275
10
-3.9999998509883894
20
-5.8245734678379213
10
-1.9999998062849065
20
-6.9792740320267423
42
-0.2679491924311232
10
-1.4999998062849067
20
-7.8452994358111807
10
-1.4999998062849067
20
-10.154700564188818
42
-0.26794919243112464
10
-1.9999998062849056
20
-11.020725967973258
10
-3.9999998509883894
20
-12.175426532162078
42
-0.26794919243112453
10
-4.9999998509883898
20
-12.175426532162078
10
-6.9999998956918743
20
-11.020725967973258
42
-0.2679491924311207
0
LINE
5
141
100
AcDbEntity
8
0
100
AcDbLine
10
10.000000223517421
20
-78.872984538300301
30
0
11
10.000000223517421
21
-73.000001192092896
31
0
0
LINE
5
142
100
AcDbEntity
8
0
100
AcDbLine
10
-10.000000223517418
20
-73.000001192092896
30
0
11
-10.000000223517418
21
-78.872984538300315
31
0
0
ARC
5
143
100
AcDbEntity
8
0
100
AcDbCircle
10
-9.0000002235174232
20
-73.000001192092896
30
0
40
0.99999999999999645
210
0
220
-0
230
1
100
AcDbArc
50
89.999999999999801
51
180
0
ARC
5
144
100
AcDbEntity
8
0
100
AcDbCircle
10
9.0000002235174286
20
-73.000001192092896
30
0
40
0.99999999999999423
210
0
220
0
230
1
100
AcDbArc
50
0
51
90.000000000000313
0
ARC
5
145
100
AcDbEntity
8
0
100
AcDbCircle
10
11.000000223517436
20
-78.872984538300301
30
0
40
1.0000000000000142
210
0
220
0
230
1
100
AcDbArc
50
180
51
284.4775121859289
0
ARC
5
146
100
AcDbEntity
8
0
100
AcDbCircle
10
-11.000000223517421
20
-78.872984538300315
30
0
40
0.99999999999999922
210
0
220
0
230
1
100
AcDbArc
50
-104.4775121859299
51
0
0
CIRCLE
5
147
100
AcDbEntity
8
0
100
AcDbCircle
10
-12.500000186264515
20
-75.00000111758709
30
0
40
1.5000000000000009
210
0
220
0
230
1
0
CIRCLE
5
148
100
AcDbEntity
8
0
100
AcDbCircle
10
12.500000186264515
20
-75.00000111758709
30
0
40
1.5000000223517418
210
0
220
0
230
1
0
LINE
5
149
100
AcDbEntity
8
0
100
AcDbLine
10
8.0000001192092896
20
39.000000596046448
30
0
11
8.0000001192092896
21
38.000000551342964
31
0
0
LINE
5
150
100
AcDbEntity
8
0
100
AcDbLine
10
7.0000001192092896
20
37.000000551342964
30
0
11
4.0000000372529003
21
37.000000551342964
31
0
0
LINE
5
151
100
AcDbEntity
8
0
100
AcDbLine
10
3.0000000372529008
20
39.000000596046448
30
0
11
3.0000000372529008
21
38.000000551342964
31
0
0
LINE
5
152
100
AcDbEntity
8
0
100
AcDbLine
10
-10.000000223517418
20
40.000000596046448
30
0
11
2.0000000372529003
21
40.000000596046448
31
0
0
LINE
5
153
100
AcDbEntity
8
0
100
AcDbLine
10
9.0000001192092896
20
40.000000596046448
30
0
11
10.000000223517418
21
40.000000596046448
31
0
0
ARC
5
154
100
AcDbEntity
8
0
100
AcDbCircle
10
4.0000000372529065
20
38.000000551342971
30
0
40
1.0000000000000058
210
0
220
0
230
1
100
AcDbArc
50
180
51
269.9999999999996
0
ARC
5
155
100
AcDbEntity
8
0
100
AcDbCircle
10
7.0000001192092851
20
38.000000551342971
30
0
40
1.0000000000000053
210
-0
220
0
230
1
100
AcDbArc
50
270.00000000000023
51
360
0
ARC
5
156
100
AcDbEntity
8
0
100
AcDbCircle
10
9.0000001192092931
20
39.000000596046441
30
0
40
1.0000000000000053
210
0
220
0
230
1
100
AcDbArc
50
90.000000000000199
51
180
0
ARC
5
157
100
AcDbEntity
8
0
100
AcDbCircle
10
2.0000000372528954
20
39.000000596046441
30
0
40
1.0000000000000051
210
0
220
-0
230
1
100
AcDbArc
50
0
51
89.999999999999716
0
LINE
5
158
100
AcDbEntity
8
0
100
AcDbLine
10
-6.5000001117587161
20
-64.000001005828381
30
0
11
6.4999998882412813
21
-64.000001005828381
31
0
0
LINE
5
159
100
AcDbEntity
8
0
100
AcDbLine
10
7.4999998882412831
20
-65.000001005828381
30
0
11
7.499999888241291
21
-71.000001192092896
31
0
0
LINE
5
160
100
AcDbEntity
8
0
100
AcDbLine
10
-7.500000111758709
20
-71.000001192092896
30
0
11
-7.500000111758709
21
-65.000001005828381
31
0
0
LINE
5
161
100
AcDbEntity
8
0
100
AcDbLine
10
9.0000002235174232
20
-72.000001192092896
30
0
11
8.499999888241291
21
-72.000001192092896
31
0
0
LINE
5
162
100
AcDbEntity
8
0
100
AcDbLine
10
-8.500000111758709
20
-72.000001192092896
30
0
11
-9.0000002235174197
21
-72.000001192092896
31
0
0
ARC
5
163
100
AcDbEntity
8
0
100
AcDbCircle
10
-8.5000001117587036
20
-71.000001192092896
30
0
40
0.99999999999999645
210
0
220
0
230
1
100
AcDbArc
50
-90.000000000000313
51
0
0
ARC
5
164
100
AcDbEntity
8
0
100
AcDbCircle
10
8.4999998882412857
20
-71.000001192092896
30
0
40
0.99999999999999423
210
0
220
0
230
1
100
AcDbArc
50
180
51
270.00000000000034
0
ARC
5
165
100
AcDbEntity
8
0
100
AcDbCircle
10
6.4999998882412893
20
-65.000001005828381
30
0
40
0.99999999999999423
210
0
220
-0
230
1
100
AcDbArc
50
0
51
90.000000000000455
0
ARC
5
166
100
AcDbEntity
8
0
100
AcDbCircle
10
-6.5000001117587214
20
-65.000001005828381
30
0
40
0.99999999999999645
210
0
220
-0
230
1
100
AcDbArc
50
89.999999999999702
51
180
0
ARC
5
167
100
AcDbEntity
8
0
100
AcDbCircle
10
-57.663232123554437
20
38.691347411766507
30
0
40
3.0000000000000071
210
0
220
0
230
1
100
AcDbArc
50
174.54530880295098
51
335.35717234923129
0
ARC
5
168
100
AcDbEntity
8
0
100
AcDbCircle
10
-68.7191214333575
20
32.230905133954238
30
0
40
2.9999999999999987
210
0
220
0
230
1
100
AcDbArc
50
-94.757928040627746
51
66.053935505651154
0
ARC
5
169
100
AcDbEntity
8
0
100
AcDbCircle
10
-62.329769531997002
20
21.30677447812274
30
0
40
3.0000000000000027
210
-0
220
0
230
1
100
AcDbArc
50
-5.4085503461416344
51
155.403313200138
0
ARC
5
170
100
AcDbEntity
8
0
100
AcDbCircle
10
-60.000000819563866
20
30.000000447034836
30
0
40
9.0000000000000053
210
0
220
-0
230
1
100
AcDbArc
50
17.534457931102519
51
55.763104122370216
0
ARC
5
171
100
AcDbEntity
8
0
100
AcDbCircle
10
-60.000000819563866
20
30.000000447034836
30
0
40
9.0000000000000373
210
0
220
0
230
1
100
AcDbArc
50
94.139377029811996
51
146.4598672787908
0
ARC
5
172
100
AcDbEntity
8
0
100
AcDbCircle
10
-60.000000819563866
20
30.000000447034836
30
0
40
9
210
0
220
0
230
1
100
AcDbArc
50
184.8361401862326
51
235.80924497327723
0
ARC
5
173
100
AcDbEntity
8
0
100
AcDbCircle
10
-60.000000819563866
20
30.000000447034836
30
0
40
9.0000000000000142
210
0
220
0
230
1
100
AcDbArc
50
274.18551788071909
51
309.80935156945725
0
ARC
5
174
100
AcDbEntity
8
0
100
AcDbCircle
10
62.329316643404567
20
21.306653526719895
30
0
40
3.0000000000000009
210
0
220
-0
230
1
100
AcDbArc
50
24.593692816538837
51
185.40557587508155
0
ARC
5
175
100
AcDbEntity
8
0
100
AcDbCircle
10
68.69335000582015
20
32.329308708788417
30
0
40
3.0000000000000004
210
0
220
0
230
1
100
AcDbArc
50
114.59364345706902
51
275.40552302932463
0
ARC
5
176
100
AcDbEntity
8
0
100
AcDbCircle
10
57.67030050133603
20
38.693245154463455
30
0
40
2.9999999999999947
210
0
220
0
230
1
100
AcDbArc
50
-155.40376492907257
51
5.4080991747062663
0
ARC
5
177
100
AcDbEntity
8
0
100
AcDbCircle
10
60.000000784284175
20
30.000000578680531
30
0
40
9.0000002590415544
210
0
220
0
230
1
100
AcDbArc
50
230.19064836230524
51
265.81149789209735
0
ARC
5
178
100
AcDbEntity
8
0
100
AcDbCircle
10
60.000000784284175
20
30.000000578680531
30
0
40
9.0000002590415189
210
0
220
0
230
1
100
AcDbArc
50
304.18777079952304
51
355.81144689202165
0
ARC
5
179
100
AcDbEntity
8
0
100
AcDbCircle
10
60.000000784284175
20
30.000000578680531
30
0
40
9.0000002590415598
210
0
220
-0
230
1
100
AcDbArc
50
34.187719594371799
51
85.814031226596711
0
ARC
5
180
100
AcDbEntity
8
0
100
AcDbCircle
10
60.000000784284175
20
30.000000578680531
30
0
40
9.0000002590415189
210
0
220
0
230
1
100
AcDbArc
50
124.19030301903696
51
162.46554471080498
0
ENDSEC
0
SECTION
2
OBJECTS
0
DICTIONARY
5
C
100
AcDbDictionary
3
ACAD_GROUP
350
D
3
ACAD_MLINESTYLE
350
17
0
DICTIONARY
5
D
100
AcDbDictionary
0
DICTIONARY
5
1A
330
C
100
AcDbDictionary
0
DICTIONARY
5
17
100
AcDbDictionary
0
ENDSEC
0
EOF
